PathFileType	4	(X/Y/Z)
DataRate	CameraRate	NumFrames	NumMarkers	Units	OrigDataRate	OrigDataStartFrame	OrigNumFrames
120	120	4	142	mm	120	119	473	
Frame#	Time	 STRN			 T1			 T8			 T10			 T12			 C7			 CLAV			 LANK			 RANK			 LANI			 RANI			 LASI			 RASI			 LPSI			 RPSI			 LSHO			 RSHO			 LTOE			 RTOE			 RHEE			 LHEE			 LKNE			 RKNE			 LKNI			 RKNI			 RIWR			 LIWR			 RELB			 LELB			 RELBIN			 LELBIN			 LOWR			 ROWR			 RCLAV			 LCLAV			 RFHD			 LBHD			 LFHD			 RBHD			 LMT1			 LMT5			 RMT1			 RMT5			 Tracking_L5			 Tracking_L4			 Tracking_L3			 Tracking_L2			 Tracking_L1			 Tracking_T11			 Tracking_T9			 Tracking_T7			 Tracking_T6			 Tracking_T5			 Tracking_T4			 Tracking_T3			 Tracking_T2			 rthumb			 rindex			 rmiddle			 rring			 rpinky			 lthumb			 lindex			 lmiddle			 lring			 lpinky			 ROOT			 Spine1			 Spine2			 Spine3			 LHIPJ			 RHIPJ			 LKJC			 RKJC			 LAJC			 RAJC			 LFOOT			 RFOOT			 NECK			 LCOL			 RCOL			 HEAD			 LSHOULDER			 RSHOULDER			 LELC			 RELC			 LWRIST			 RWRIST			 left_index1			 left_index2			 left_index3			 left_middle1			 left_middle2			 left_middle3			 left_pinky1			 left_pinky2			 left_pinky3			 left_ring1			 left_ring2			 left_ring3			 left_thumb1			 left_thumb2			 left_thumb3			 right_index1			 right_index2			 right_index3			 right_middle1			 right_middle2			 right_middle3			 right_pinky1			 right_pinky2			 right_pinky3			 right_ring1			 right_ring2			 right_ring3			 right_thumb1			 right_thumb2			 right_thumb3			 MASI			 MPSI			 MHIPJ			 CENTER			 Virtual_LWRIST			 Virtual_RWRIST			 Virtual_LAJC			 Virtual_RAJC			 Virtual_LKJC			 Virtual_RKJC			 Virtual_LELC			 Virtual_RELC			 Virtual_Ground_RAJC			 Virtual_Ground_LAJC			 Virtual_Ground_RFOOT			 Virtual_Ground_LFOOT			 Virtual_Ground_RTOE			 Virtual_Ground_LTOE			 Virtual_Ground_RMT1			 Virtual_Ground_LMT1			 Virtual_Ground_RMT5			 Virtual_Ground_LMT5			 Virtual_Ground_RHEE			 Virtual_Ground_LHEE		
		X1	Y1	Z1	X2	Y2	Z2	X3	Y3	Z3	X4	Y4	Z4	X5	Y5	Z5	X6	Y6	Z6	X7	Y7	Z7	X8	Y8	Z8	X9	Y9	Z9	X10	Y10	Z10	X11	Y11	Z11	X12	Y12	Z12	X13	Y13	Z13	X14	Y14	Z14	X15	Y15	Z15	X16	Y16	Z16	X17	Y17	Z17	X18	Y18	Z18	X19	Y19	Z19	X20	Y20	Z20	X21	Y21	Z21	X22	Y22	Z22	X23	Y23	Z23	X24	Y24	Z24	X25	Y25	Z25	X26	Y26	Z26	X27	Y27	Z27	X28	Y28	Z28	X29	Y29	Z29	X30	Y30	Z30	X31	Y31	Z31	X32	Y32	Z32	X33	Y33	Z33	X34	Y34	Z34	X35	Y35	Z35	X36	Y36	Z36	X37	Y37	Z37	X38	Y38	Z38	X39	Y39	Z39	X40	Y40	Z40	X41	Y41	Z41	X42	Y42	Z42	X43	Y43	Z43	X44	Y44	Z44	X45	Y45	Z45	X46	Y46	Z46	X47	Y47	Z47	X48	Y48	Z48	X49	Y49	Z49	X50	Y50	Z50	X51	Y51	Z51	X52	Y52	Z52	X53	Y53	Z53	X54	Y54	Z54	X55	Y55	Z55	X56	Y56	Z56	X57	Y57	Z57	X58	Y58	Z58	X59	Y59	Z59	X60	Y60	Z60	X61	Y61	Z61	X62	Y62	Z62	X63	Y63	Z63	X64	Y64	Z64	X65	Y65	Z65	X66	Y66	Z66	X67	Y67	Z67	X68	Y68	Z68	X69	Y69	Z69	X70	Y70	Z70	X71	Y71	Z71	X72	Y72	Z72	X73	Y73	Z73	X74	Y74	Z74	X75	Y75	Z75	X76	Y76	Z76	X77	Y77	Z77	X78	Y78	Z78	X79	Y79	Z79	X80	Y80	Z80	X81	Y81	Z81	X82	Y82	Z82	X83	Y83	Z83	X84	Y84	Z84	X85	Y85	Z85	X86	Y86	Z86	X87	Y87	Z87	X88	Y88	Z88	X89	Y89	Z89	X90	Y90	Z90	X91	Y91	Z91	X92	Y92	Z92	X93	Y93	Z93	X94	Y94	Z94	X95	Y95	Z95	X96	Y96	Z96	X97	Y97	Z97	X98	Y98	Z98	X99	Y99	Z99	X100	Y100	Z100	X101	Y101	Z101	X102	Y102	Z102	X103	Y103	Z103	X104	Y104	Z104	X105	Y105	Z105	X106	Y106	Z106	X107	Y107	Z107	X108	Y108	Z108	X109	Y109	Z109	X110	Y110	Z110	X111	Y111	Z111	X112	Y112	Z112	X113	Y113	Z113	X114	Y114	Z114	X115	Y115	Z115	X116	Y116	Z116	X117	Y117	Z117	X118	Y118	Z118	X119	Y119	Z119	X120	Y120	Z120	X121	Y121	Z121	X122	Y122	Z122	X123	Y123	Z123	X124	Y124	Z124	X125	Y125	Z125	X126	Y126	Z126	X127	Y127	Z127	X128	Y128	Z128	X129	Y129	Z129	X130	Y130	Z130	X131	Y131	Z131	X132	Y132	Z132	X133	Y133	Z133	X134	Y134	Z134	X135	Y135	Z135	X136	Y136	Z136	X137	Y137	Z137	X138	Y138	Z138	X139	Y139	Z139	X140	Y140	Z140	X141	Y141	Z141	X142	Y142	Z142

119	0.9833	324.743927	-409.519970	1085.433483	327.132344	-195.103481	1345.381856	317.248076	-131.384492	1157.790542	314.111173	-134.160638	1104.561687	310.535491	-144.029617	1050.594926	329.269916	-213.539317	1364.746809	329.998821	-348.699510	1282.068133	600.749075	-142.017052	64.595178	1.686183	-176.853493	56.760330	536.571741	-142.439201	74.704543	67.793787	-179.590806	65.920368	435.846567	-341.341436	817.554653	171.494842	-342.248023	816.328347	366.377711	-118.933164	878.274441	245.807126	-122.064121	880.358517	432.182133	-243.149564	1336.761594	220.476672	-250.699729	1341.783881	582.837105	-314.961433	-8.164984	13.264743	-356.117040	-6.632549	36.719915	-114.623062	-6.707531	571.782172	-71.210854	5.957740	573.793709	-381.052703	412.903517	45.504596	-407.195628	409.471840	468.357176	-384.493113	382.317096	155.986384	-407.528549	378.510565	-49.707595	-483.220726	1581.517458	703.207314	-446.153551	1562.078595	-107.004255	-339.827567	1375.092506	759.612679	-289.524436	1367.488384	-104.759902	-417.144597	1321.477175	775.463223	-361.407727	1308.891773	759.239733	-442.115426	1574.809432	-110.445827	-487.131864	1584.924698	261.631161	-321.268499	1307.134628	397.264332	-316.849560	1304.006100	283.627957	-382.150829	1553.890467	397.357196	-263.909101	1590.268970	384.800881	-391.101688	1551.940560	297.269076	-254.200429	1591.082573	579.378068	-262.081951	13.996857	646.967888	-233.046681	4.842359	18.199828	-304.961979	12.196082	-56.693945	-274.026304	3.265637	305.339277	-137.047589	918.043554	305.723697	-145.726919	944.016218	307.171643	-151.805371	974.032640	307.453334	-152.561814	999.856889	308.995724	-148.945451	1025.060892	312.483072	-139.136389	1076.929688	315.853477	-132.066712	1132.169008	318.593979	-132.364690	1179.366112	320.297420	-138.061345	1216.844559	322.345406	-146.036521	1246.532798	323.954523	-158.245385	1285.377026	324.587703	-167.753860	1307.776332	325.591892	-179.727510	1326.254964	-17.528448	-571.689069	1693.385601	-40.226344	-564.657152	1732.105255	-67.615837	-565.811217	1736.610651	-84.779292	-564.733088	1720.806003	-110.459417	-558.036685	1705.801010	661.616504	-533.827484	1665.359974	675.981283	-534.407675	1698.694229	698.150933	-534.209669	1709.423661	717.246532	-527.997553	1696.115971	743.999660	-515.006900	1688.806891	305.194110	-264.894098	820.532382	309.516191	-217.316836	944.112599	322.482586	-259.985596	1070.787311	322.721124	-268.144727	1123.426676	364.970654	-249.986380	737.174690	240.644842	-260.468125	730.164468	523.659945	-376.210272	412.866890	96.579134	-400.664210	405.835986	562.312186	-147.292316	56.190390	42.062040	-185.957804	51.363964	621.979535	-254.716337	-12.303037	-28.442983	-299.435169	-10.162097	322.524279	-267.891794	1334.840655	401.456982	-264.387250	1235.944867	246.574759	-264.634639	1243.523240	332.093775	-320.686936	1412.844062	524.257660	-242.234215	1287.487745	134.673476	-265.148014	1298.984647	763.435781	-326.042145	1334.009051	-100.161970	-378.555298	1343.133330	738.068759	-451.646686	1568.990350	-85.703373	-496.143162	1585.717916	677.539885	-472.969592	1656.241894	666.148961	-486.468941	1684.297800	670.886576	-507.832646	1692.314625	694.336474	-463.919103	1673.188925	690.764844	-479.565233	1700.865626	695.681155	-502.789080	1707.658648	743.711352	-458.242476	1667.737246	745.298684	-471.451789	1683.227181	746.774673	-490.581036	1688.056111	721.290469	-458.896697	1672.418594	715.563595	-476.322383	1695.682049	718.110800	-500.340581	1700.229764	701.408088	-483.544827	1596.915483	684.148729	-504.301906	1613.829851	668.625355	-513.028443	1634.516835	-40.268276	-505.172372	1683.396697	-34.738246	-515.447974	1715.290070	-39.153878	-536.811292	1724.004865	-62.879354	-497.537315	1696.586370	-63.789010	-511.078000	1725.754857	-67.234129	-534.337580	1732.843995	-111.198425	-500.912726	1681.147337	-114.811718	-514.222026	1696.168661	-114.895284	-533.231676	1701.360345	-90.489507	-496.981710	1690.334082	-88.739365	-512.023032	1715.813518	-89.818537	-536.146164	1721.130490	-49.207482	-521.581352	1619.346976	-34.412120	-541.434526	1640.256047	-23.416970	-549.666286	1664.480448	303.670704	-341.794729	816.941500	306.092419	-120.498642	879.316479	302.807748	-255.227253	733.669579	304.881562	-231.146686	848.128989	731.223524	-444.134489	1568.444014	-80.076711	-485.176295	1583.221078	568.660408	-142.228127	69.649860	34.739985	-178.222150	61.340349	521.075442	-382.772908	397.610307	100.745490	-407.362089	393.991202	767.537951	-325.466082	1338.190079	-105.882078	-378.486082	1348.284841	34.739985	-711.902976	61.340349	568.660408	-711.902976	69.649860	-28.442983	-711.902976	-10.162097	621.979535	-711.902976	-12.303037	13.264743	-711.902976	-6.632549	582.837105	-711.902976	-8.164984	18.199828	-711.902976	12.196082	579.378068	-711.902976	13.996857	-56.693945	-711.902976	3.265637	646.967888	-711.902976	4.842359	36.719915	-711.902976	-6.707531	571.782172	-711.902976	5.957740
120	0.9917	324.094117	-408.320129	1081.762791	326.914877	-194.125563	1341.875076	316.898733	-130.213290	1154.440761	313.701123	-132.894799	1101.189137	310.076684	-142.707139	1047.134042	329.068780	-212.585405	1361.260533	329.572082	-347.679198	1278.496385	600.990295	-142.242864	65.809958	1.372562	-177.236959	58.037035	536.851823	-142.643675	75.918786	67.444146	-179.766640	67.249589	435.117841	-341.131449	815.165639	170.816258	-341.722190	813.751101	365.955532	-118.084781	874.368131	245.327100	-121.051691	876.418948	431.778163	-242.308035	1333.228469	220.312551	-249.715090	1338.439465	582.867980	-314.644635	-7.811495	13.494716	-355.998695	-6.363758	36.119357	-114.369459	-4.961320	572.149813	-70.980690	7.584802	574.074328	-385.222554	411.611140	45.334026	-411.891848	408.061445	468.652368	-388.246983	380.825758	155.875504	-411.528498	377.162755	-48.124954	-484.590024	1579.367042	699.918985	-446.405768	1559.334517	-106.244639	-340.920597	1373.387814	758.551300	-289.793313	1365.477324	-103.903785	-418.144375	1319.664001	774.647653	-361.641675	1306.979656	755.746722	-442.480922	1572.809458	-108.822599	-488.662362	1583.026648	261.341602	-320.222616	1303.689122	396.805674	-315.917015	1300.415754	283.068895	-381.222427	1550.426245	397.077143	-263.263434	1586.942434	384.230345	-390.399545	1548.498631	297.010541	-253.338128	1587.723255	579.464376	-261.876941	14.534286	647.069335	-232.841745	5.463711	18.354075	-304.923505	12.612096	-56.619421	-274.107993	3.824464	304.836184	-135.935843	914.325356	305.205047	-144.526199	940.385699	306.648970	-150.518164	970.474780	306.937546	-151.244238	996.325970	308.494896	-147.614449	1021.551847	312.045753	-137.827322	1073.514462	315.471619	-130.851194	1128.814697	318.274111	-131.225631	1176.001906	320.005834	-136.970967	1213.450432	322.068810	-144.984856	1243.100524	323.690742	-157.245591	1281.882286	324.331522	-166.763663	1304.257870	325.350732	-178.740621	1322.730541	-15.047683	-572.804213	1691.111207	-37.603453	-565.767050	1729.940891	-64.962879	-567.011595	1734.616637	-82.193002	-566.018879	1718.893647	-107.984409	-559.427679	1704.001665	656.512439	-534.035981	1661.790490	670.323372	-534.657180	1695.376515	692.315280	-534.524977	1706.476808	711.613238	-528.329790	1693.452716	738.517165	-515.392542	1686.585307	304.604948	-264.473289	817.427695	308.907837	-216.140494	940.715015	321.962178	-258.760512	1067.397118	322.194517	-267.030209	1120.019317	364.446759	-250.145793	734.015107	240.113467	-260.532349	726.996064	523.853242	-380.109549	411.541343	96.402332	-405.047715	404.410809	562.611699	-147.377461	57.353370	41.756675	-186.105624	52.559189	622.107685	-254.471004	-11.803457	-28.346313	-299.429983	-9.703883	322.259933	-266.958773	1331.433415	401.073039	-263.437837	1232.442975	246.200159	-263.557166	1240.213156	331.736028	-319.731951	1409.463048	523.841023	-241.678745	1284.230947	134.503961	-264.527619	1296.080351	762.482941	-326.288313	1332.037091	-99.314585	-379.573345	1341.372490	734.677076	-451.947689	1566.713095	-84.051833	-497.604966	1583.692193	672.694564	-473.180294	1652.960300	660.822809	-486.665577	1680.822968	665.389538	-508.040071	1688.909888	689.229429	-464.165300	1670.181394	685.178101	-479.811788	1697.791815	689.940035	-503.046453	1704.657435	738.696992	-458.578974	1665.536880	740.007162	-471.795112	1681.046963	741.368771	-490.928292	1685.893893	716.201663	-459.192723	1669.852018	710.064054	-476.613641	1693.014026	712.492228	-500.637650	1697.595835	697.507024	-483.784795	1594.027758	679.935813	-504.514039	1610.652804	664.061189	-513.216972	1631.081462	-38.077250	-506.333172	1681.145668	-32.348260	-516.539097	1713.026285	-36.652043	-537.901521	1721.799016	-60.642317	-498.746097	1694.441438	-61.357066	-512.241483	1723.636389	-64.693019	-535.499811	1730.781317	-109.031036	-502.295852	1679.261804	-112.524316	-515.591502	1694.323659	-112.521872	-534.592748	1699.546814	-88.286504	-498.285919	1688.333273	-86.356238	-513.279796	1713.827729	-87.332919	-537.397325	1719.189644	-47.301546	-522.875130	1617.170691	-32.335415	-542.648077	1638.034105	-21.187944	-550.805986	1662.213683	302.967049	-341.426820	814.458370	305.641316	-119.568236	875.393540	302.280113	-255.339071	730.505586	304.304183	-230.497528	844.925955	727.832854	-444.443345	1566.071987	-78.473777	-486.626193	1581.196845	568.921059	-142.443269	70.864372	34.408354	-178.501800	62.643312	521.363348	-386.734769	396.218449	100.604765	-411.710173	392.612100	766.599476	-325.717494	1336.228490	-105.074212	-379.532486	1346.525908	34.408354	-711.902976	62.643312	568.921059	-711.902976	70.864372	-28.346313	-711.902976	-9.703883	622.107685	-711.902976	-11.803457	13.494716	-711.902976	-6.363758	582.867980	-711.902976	-7.811495	18.354075	-711.902976	12.612096	579.464376	-711.902976	14.534286	-56.619421	-711.902976	3.824464	647.069335	-711.902976	5.463711	36.119357	-711.902976	-4.961320	572.149813	-711.902976	7.584802
121	1.0000	323.438942	-407.345712	1078.560591	326.612800	-193.289474	1338.760495	316.451669	-129.216045	1151.421547	313.194424	-131.830677	1098.176599	309.525847	-141.595244	1044.065714	328.797758	-211.799398	1358.185053	329.071760	-346.825540	1275.363445	601.219893	-142.220289	66.517793	1.214924	-177.581698	58.967616	537.122190	-142.610431	76.565050	67.251146	-180.170417	68.188630	434.412420	-341.381788	813.256383	170.038745	-341.543198	811.683238	365.542501	-117.652446	870.848060	244.862691	-120.414078	872.817576	431.281298	-241.591677	1330.079556	220.121279	-248.872727	1335.479259	582.796872	-314.377248	-7.354770	13.385298	-356.161654	-5.804036	35.821740	-114.437945	-3.772889	572.613060	-70.727117	8.444692	574.433267	-388.109326	410.325885	44.524912	-415.494829	406.987250	469.048738	-391.002893	379.348695	155.108929	-415.071249	376.042902	-47.326561	-485.978425	1577.900648	697.211385	-446.853042	1557.166815	-105.549693	-341.887683	1372.220874	757.362902	-290.124178	1363.915563	-103.144705	-419.082105	1318.435669	773.777962	-361.968279	1305.572033	752.829552	-442.820787	1571.313500	-108.000219	-490.086019	1581.681728	260.985732	-319.341421	1300.645828	396.261930	-315.137863	1297.229052	282.455325	-380.362809	1547.340035	396.790653	-262.712806	1583.824277	383.591950	-389.841080	1545.403838	296.760589	-252.523690	1584.622383	579.511166	-261.618942	14.994646	647.183836	-232.696593	5.946066	18.293293	-305.110067	13.156976	-56.686189	-274.258077	4.383828	304.309249	-135.154545	910.976887	304.646969	-143.599764	937.133491	306.075335	-149.467006	967.299700	306.360871	-150.143147	993.190348	307.917804	-146.499500	1018.443704	311.510086	-136.725426	1070.477843	314.990044	-129.824221	1125.802875	317.857772	-130.243585	1172.963023	319.620311	-136.008918	1210.379243	321.705014	-144.059002	1239.999056	323.343307	-156.378895	1278.726697	323.992491	-165.908128	1301.083088	325.024009	-177.888125	1319.568872	-13.808755	-574.147284	1689.498782	-36.304381	-567.097843	1728.420734	-63.644528	-568.377554	1733.170152	-80.910325	-567.415297	1717.489004	-106.758595	-560.854197	1702.659369	652.448416	-534.565151	1658.863664	665.700257	-535.115898	1692.682624	687.550902	-534.940302	1704.174519	707.032025	-528.706133	1691.408873	734.044969	-515.718579	1684.918880	303.972065	-264.427155	814.790666	308.259100	-215.233505	937.737644	321.364671	-257.781953	1064.438462	321.620643	-266.166151	1117.042422	363.897741	-250.780642	731.324136	239.553645	-261.023581	724.285245	524.193227	-382.895410	410.167813	95.549554	-408.610404	403.224826	562.862694	-147.215605	57.924654	41.634712	-186.366171	53.336170	622.184753	-254.326284	-11.354898	-28.384535	-299.629569	-9.131704	321.912915	-266.101271	1328.456402	400.622100	-262.629718	1229.381442	245.757610	-262.646258	1237.317920	331.289977	-319.018871	1406.400084	523.348808	-241.233170	1281.417608	134.300053	-264.011234	1293.651462	761.443496	-326.625854	1330.541849	-98.547816	-380.523920	1340.177417	731.875777	-452.311605	1564.988136	-83.210915	-499.000788	1582.275152	668.627918	-473.635465	1650.289059	656.360984	-487.132162	1677.974463	660.850585	-508.492231	1686.142445	684.877455	-464.574695	1667.755961	680.438697	-480.215400	1695.309997	685.146213	-503.435850	1702.260852	734.397829	-458.881378	1663.865685	735.499680	-472.086340	1679.401398	736.829162	-491.213858	1684.279442	711.840510	-459.542632	1667.836428	705.387712	-476.964772	1690.911770	707.798481	-500.980914	1695.543766	694.362462	-484.216362	1591.749072	676.584721	-504.975617	1608.114958	660.418570	-513.702810	1628.303409	-36.961135	-507.653594	1679.605126	-31.134842	-517.843962	1711.472988	-35.393532	-539.207935	1720.263958	-59.497174	-500.084639	1692.960143	-60.118701	-513.571680	1722.161174	-63.412189	-536.831081	1729.322314	-107.923776	-503.686726	1677.914262	-111.362696	-516.981184	1692.989707	-111.327231	-535.980761	1698.218584	-87.158412	-499.653518	1686.927676	-85.143596	-514.637649	1712.421298	-86.081833	-538.754463	1717.793345	-46.344217	-524.224401	1615.660548	-31.301554	-543.976188	1636.489034	-20.079879	-552.115619	1660.640597	302.225582	-341.462493	812.469810	305.202596	-119.033262	871.832818	301.725693	-255.902112	727.804691	303.714089	-230.247878	842.151314	725.020468	-444.836915	1564.240158	-77.663390	-488.032222	1579.791188	569.171041	-142.415360	71.541421	34.233035	-178.876057	63.578123	521.741003	-389.556110	394.837290	99.816920	-415.283039	391.515076	765.570432	-326.046228	1334.743798	-104.347199	-380.484894	1345.328271	34.233035	-711.902976	63.578123	569.171041	-711.902976	71.541421	-28.384535	-711.902976	-9.131704	622.184753	-711.902976	-11.354898	13.385298	-711.902976	-5.804036	582.796872	-711.902976	-7.354770	18.293293	-711.902976	13.156976	579.511166	-711.902976	14.994646	-56.686189	-711.902976	4.383828	647.183836	-711.902976	5.946066	35.821740	-711.902976	-3.772889	572.613060	-711.902976	8.444692
122	1.0083	322.581381	-406.620502	1075.896502	326.198369	-192.595646	1336.085439	315.893978	-128.420040	1148.758054	312.576026	-131.001726	1095.527649	308.872014	-140.747666	1041.376352	328.418195	-211.172372	1355.570793	328.382730	-346.138716	1272.709370	601.018727	-142.166808	66.559851	0.931284	-177.749738	59.473217	536.950767	-142.710194	76.465666	66.936322	-180.489406	68.674028	433.669925	-342.105389	811.765075	169.094875	-341.691345	810.031712	365.123808	-117.684744	867.721021	244.404033	-120.181851	869.572937	430.612296	-241.026446	1327.351928	219.813600	-248.082429	1332.951427	582.888722	-314.441085	-6.899894	13.162395	-356.387258	-5.155027	35.395764	-114.562735	-3.191948	572.538555	-70.756182	8.336484	574.913442	-389.854431	409.058809	43.236427	-417.998761	406.012893	469.580531	-393.002093	377.921075	153.851584	-417.957187	374.982983	-47.258176	-487.436473	1577.172399	695.051312	-447.414845	1555.478454	-104.949303	-342.727870	1371.667385	756.018758	-290.462285	1362.662554	-102.534302	-419.939727	1317.862153	772.766471	-362.315416	1304.491401	750.491321	-443.143249	1570.134759	-107.931174	-491.456956	1580.930591	260.458618	-318.573982	1298.057914	395.545870	-314.537913	1294.487596	281.902134	-379.726887	1544.664860	396.668941	-262.461871	1580.985188	383.002460	-389.572620	1542.569757	296.687871	-251.958191	1581.960082	579.546571	-261.602908	15.252887	647.240520	-232.659146	6.214022	18.087467	-305.305302	13.662874	-56.905068	-274.462849	4.807591	303.760886	-134.769320	907.991111	304.052204	-143.028289	934.246004	305.448532	-148.736775	964.492381	305.715919	-149.336070	990.432560	307.256252	-145.666644	1015.719056	310.863376	-135.874048	1067.813396	314.394951	-129.015312	1123.148918	317.334086	-129.446328	1170.281887	319.128305	-135.204434	1207.669258	321.238369	-143.279254	1237.269998	322.893918	-155.650645	1275.959611	323.549837	-165.188432	1298.304558	324.589819	-177.170798	1316.820145	-13.807783	-575.582266	1688.761473	-36.335655	-568.469107	1727.721453	-63.671865	-569.725811	1732.445002	-80.930807	-568.765700	1716.750264	-106.772639	-562.184870	1701.909423	649.448216	-535.166800	1656.688571	662.230074	-535.553277	1690.688729	683.998227	-535.265625	1702.521324	703.622282	-528.981447	1689.939857	730.712950	-515.899599	1683.692932	303.255707	-264.769167	812.590122	307.546377	-214.667082	935.169518	320.602745	-257.061720	1061.927080	320.890069	-265.531957	1114.516973	363.280743	-251.876682	729.075074	238.920674	-261.903077	722.006738	524.696887	-384.739518	408.789873	94.201319	-411.270499	402.093470	562.669694	-147.146642	57.758212	41.422807	-186.503887	53.645790	622.254908	-254.416615	-11.047424	-28.523633	-299.925983	-8.615316	321.417868	-265.330225	1325.930357	400.020212	-262.004942	1226.765752	245.164752	-261.855036	1234.874487	330.734760	-318.508446	1403.703809	522.674739	-240.878314	1279.081702	133.964255	-263.487220	1291.706800	760.267615	-326.988637	1329.368711	-97.899325	-381.388068	1339.630246	729.635298	-452.711880	1563.658118	-83.130188	-500.386834	1581.507206	665.475786	-474.132210	1648.251057	652.939260	-487.626135	1675.816774	657.419860	-508.951843	1684.079051	681.481361	-464.971125	1665.890098	676.782727	-480.577052	1693.420768	681.503177	-503.764510	1700.472116	731.020391	-459.081382	1662.571192	731.993377	-472.251862	1678.144813	733.343661	-491.364360	1683.075786	708.420813	-459.827900	1666.277766	701.768219	-477.232128	1689.309835	704.222679	-501.229227	1694.017053	691.940606	-484.719396	1590.038776	674.056649	-505.520225	1606.235266	657.689869	-514.275134	1626.249313	-36.912836	-509.025931	1678.853750	-31.104425	-519.202650	1710.729361	-35.386421	-540.556967	1719.532371	-59.444644	-501.426518	1692.198753	-60.086675	-514.895141	1721.407771	-63.404925	-538.146853	1728.582382	-107.871063	-504.989922	1677.143097	-111.326821	-518.271685	1692.225814	-111.311443	-537.268102	1697.466373	-87.103941	-500.971735	1686.159134	-85.110195	-515.942216	1711.662412	-86.073644	-540.054798	1717.048883	-46.296664	-525.626540	1614.917159	-31.278647	-545.380473	1635.761261	-20.070950	-553.516269	1659.920573	301.382400	-341.898367	810.898393	304.763921	-118.933298	868.646979	301.100709	-256.889880	725.540906	303.073160	-230.415832	839.772686	722.771317	-445.279047	1562.806606	-77.594675	-489.446715	1579.051495	568.984747	-142.438501	71.512759	33.933803	-179.119572	64.073622	522.246987	-391.428262	393.489942	98.544005	-417.977974	390.497938	764.392614	-326.388851	1333.576977	-103.741802	-381.333798	1344.764769	33.933803	-711.902976	64.073622	568.984747	-711.902976	71.512759	-28.523633	-711.902976	-8.615316	622.254908	-711.902976	-11.047424	13.162395	-711.902976	-5.155027	582.888722	-711.902976	-6.899894	18.087467	-711.902976	13.662874	579.546571	-711.902976	15.252887	-56.905068	-711.902976	4.807591	647.240520	-711.902976	6.214022	35.395764	-711.902976	-3.191948	572.538555	-711.902976	8.336484
